<svg width="880" height="240" viewBox="0 0 880 240" fill="none" xmlns="http://www.w3.org/2000/svg" role="img" aria-labelledby="lt ld">
  <title id="lt">Tietiezhi 铁铁汁</title>
  <desc id="ld">Tietiezhi wordmark — octopus mark plus name. 万物互联的多模态 AI 平台。</desc>
  <defs>
    <linearGradient id="lm-bg" x1="20" y1="20" x2="220" y2="220" gradientUnits="userSpaceOnUse">
      <stop stop-color="#4F46E5"/>
      <stop offset="1" stop-color="#06B6D4"/>
    </linearGradient>
    <linearGradient id="lm-body" x1="70" y1="55" x2="180" y2="185" gradientUnits="userSpaceOnUse">
      <stop stop-color="#FFFFFF"/>
      <stop offset="1" stop-color="#E6F7FF"/>
    </linearGradient>
    <linearGradient id="lm-text" x1="270" y1="70" x2="270" y2="170" gradientUnits="userSpaceOnUse">
      <stop stop-color="#4F46E5"/>
      <stop offset="1" stop-color="#06B6D4"/>
    </linearGradient>
  </defs>

  <!-- mark (scaled/positioned copy of tietiezhi-mark) -->
  <g transform="translate(20,20) scale(0.3906)">
    <rect width="512" height="512" rx="116" fill="url(#lm-bg)"/>
    <g fill="#FFE08A">
      <circle cx="96" cy="392" r="13"/><circle cx="168" cy="430" r="13"/>
      <circle cx="228" cy="446" r="13"/><circle cx="284" cy="446" r="13"/>
      <circle cx="344" cy="430" r="13"/><circle cx="416" cy="392" r="13"/>
      <circle cx="140" cy="360" r="11" opacity="0.9"/><circle cx="372" cy="360" r="11" opacity="0.9"/>
    </g>
    <g fill="url(#lm-body)">
      <path d="M256 300 C 205 322 150 356 96 392 C 132 372 176 356 214 350 C 200 336 210 316 256 300 Z"/>
      <path d="M256 300 C 220 330 190 392 168 430 C 190 392 216 366 236 356 C 224 340 232 320 256 300 Z"/>
      <path d="M256 302 C 240 340 232 404 228 446 C 240 404 250 372 256 358 C 262 372 272 404 284 446 C 280 404 272 340 256 302 Z"/>
      <path d="M256 300 C 292 330 322 392 344 430 C 322 392 296 366 276 356 C 288 340 280 320 256 300 Z"/>
      <path d="M256 300 C 307 322 362 356 416 392 C 380 372 336 356 298 350 C 312 336 302 316 256 300 Z"/>
    </g>
    <path d="M256 96 C 330 96 388 152 388 232 C 388 292 352 330 320 344 C 300 352 212 352 192 344 C 160 330 124 292 124 232 C 124 152 182 96 256 96 Z" fill="url(#lm-body)"/>
    <circle cx="212" cy="232" r="30" fill="#1E293B"/><circle cx="300" cy="232" r="30" fill="#1E293B"/>
    <circle cx="222" cy="222" r="9" fill="#FFFFFF"/><circle cx="310" cy="222" r="9" fill="#FFFFFF"/>
    <path d="M232 286 Q 256 306 280 286" stroke="#94A3B8" stroke-width="7" stroke-linecap="round" fill="none"/>
  </g>

  <!-- wordmark -->
  <text x="256" y="112" font-family="-apple-system, BlinkMacSystemFont, 'Segoe UI', Helvetica, Arial, sans-serif" font-size="72" font-weight="800" fill="url(#lm-text)" letter-spacing="-1">Tietiezhi</text>
  <text x="258" y="164" font-family="-apple-system, 'PingFang SC', 'Microsoft YaHei', sans-serif" font-size="34" font-weight="600" fill="#64748B">铁铁汁 · 万物互联的多模态 AI 平台</text>
</svg>
